<svg xmlns="http://www.w3.org/2000/svg" xmlns:xlink="http://www.w3.org/1999/xlink" width="212.01" height="328.208" viewBox="0 0 212.01 328.208"><defs><filter id="a" x="109.281" y="240.208" width="88" height="88" filterUnits="userSpaceOnUse"><feOffset dy="6" input="SourceAlpha"/><feGaussianBlur stdDeviation="5" result="b"/><feFlood flood-color="#f97449" flood-opacity="0.22"/><feComposite operator="in" in2="b"/><feComposite in="SourceGraphic"/></filter></defs><g transform="translate(-23.719 -313.792)"><g transform="translate(-27.65 283.716)"><g transform="translate(51.37 24.165)"><g transform="translate(146.186 5.911) rotate(38)"><g transform="translate(18.723 13.263)"><path d="M6.446,26.907C2.851,22.687.418,17.516.824,11.722,2-4.973,25.236-1.3,29.757,7.126s3.984,29.8-1.859,31.306c-2.33.6-7.294-.871-12.346-3.916L18.723,56.95H0Z" transform="translate(0 0)" fill="#b28b67" fill-rule="evenodd"/></g><path d="M89.271,23.872A4.049,4.049,0,0,0,86.435,21a3.736,3.736,0,0,0-1.044-.1c-.125.005-.161.041-.22-.047a1.173,1.173,0,0,1-.063-.3,5.574,5.574,0,0,0-.212-.7,5.728,5.728,0,0,0-1.384-2.057A6.965,6.965,0,0,0,79.33,15.8a6.1,6.1,0,0,0-2.515.343,9.963,9.963,0,0,0-1.221.522c-.119.06-.506.352-.625.333s-.4-.349-.5-.432a7.4,7.4,0,0,0-4.62-1.407c-1.866.014-3.663.107-5.219,1.245a10.427,10.427,0,0,0-.942.782c-.157.146-.31.3-.455.456q-.131.143-.255.293c-.139.17-.117.226-.312.107a3.88,3.88,0,0,0-2.491-.56,5.574,5.574,0,0,0-1.5.425c-.163.07-.541.348-.715.351s-.545-.256-.723-.321a5.929,5.929,0,0,0-3.005-.278,7.76,7.76,0,0,0-2.947,1.159,3.962,3.962,0,0,0-1.092.993c-.128.177-.245.365-.39.529-.085.1-.254.2-.3.317a6.471,6.471,0,0,0-1.249-.551,3.076,3.076,0,0,0-1.757.067,6.988,6.988,0,0,0-2.771,1.969,7.868,7.868,0,0,0-1.026,1.378q-.209.355-.384.729a2.711,2.711,0,0,1-.169.38c-.1.14-.161.143-.335.2a5.406,5.406,0,0,0-2.3,1.542A5.306,5.306,0,0,0,38.307,28.9a1.288,1.288,0,0,1-.048.311c-.044.041-.222.023-.289.031a6.067,6.067,0,0,0-.692.122,5.713,5.713,0,0,0-1.217.437,6.357,6.357,0,0,0-3.116,3.721,7.549,7.549,0,0,0,.118,5.168,5.054,5.054,0,0,0,.384.757c.092.148.121.148.062.3-.066.172-.188.34-.267.508a7.292,7.292,0,0,0-.551,1.728,8.1,8.1,0,0,0-.095,2.987,4.311,4.311,0,0,0,.461,1.31,3.755,3.755,0,0,0,.4.586c.079.095.164.185.252.271a1.686,1.686,0,0,1,.16.148c.1.135.127.024.073.222a8.825,8.825,0,0,1-.351.817q-.162.415-.295.841a12.4,12.4,0,0,0-.429,1.753,5.5,5.5,0,0,0,.389,3.406,3.407,3.407,0,0,0,.964,1.147,3.575,3.575,0,0,0,.633.384c.115.055.261.078.314.189s-.027.356-.046.49a8.166,8.166,0,0,0,.1,3.518,4.86,4.86,0,0,0,1.926,2.586,5.993,5.993,0,0,0,5.991.17,6.29,6.29,0,0,0,1.337-.919c1.026,1.381,3.137,1.337,4.637.944a6.661,6.661,0,0,0,4.231-3.5,2.819,2.819,0,0,0,4.479-.588,3.731,3.731,0,0,0,.378-1.228c.031-.224.011-.45.034-.672a3.469,3.469,0,0,1,.327-.832,4.592,4.592,0,0,0,.349-1.658,8.415,8.415,0,0,0-.064-.89,3.057,3.057,0,0,1,.091-.782,3.578,3.578,0,0,1-1.514-.189,2.99,2.99,0,0,1-1.171-.823,6.831,6.831,0,0,1-1.473-2.753c-.666-2.181-.393-4.8,1.8-5.994,1.022-.558,4.083-.556,5.3-.28,1.28.29,2.73,3.113,2.8,3.379.044.164.022.368.173.477.332.241.879-.177,1.123-.383a4.43,4.43,0,0,0,.984-1.309,16.192,16.192,0,0,0,1.35-3.31c.249-.882.409-1.792.735-2.651a4.055,4.055,0,0,1,1.631-2.1,14.354,14.354,0,0,1,2.806-1.136,6.965,6.965,0,0,0,2.6-1.426,3.593,3.593,0,0,0,.445-.5c.1-.142.2-.415.358-.505.241-.14.594.225.8.357a9.277,9.277,0,0,1,2.583,2.563,15.986,15.986,0,0,1,1.715,3.052,8.809,8.809,0,0,0,1.153,2.545,4.865,4.865,0,0,0,2.9.22,3.664,3.664,0,0,0,1.583-1.37,2.128,2.128,0,0,0,.18-1.4c-.055-.281-.169-.544-.231-.821a2.564,2.564,0,0,0-.213-.664,1.637,1.637,0,0,0-1.021-.814,4.783,4.783,0,0,0,1.1-1.5,6.431,6.431,0,0,0,.572-1.949,2.37,2.37,0,0,0-.316-1.518,4,4,0,0,0-1.3-1.076,8.417,8.417,0,0,0,1.8-1.965A6.134,6.134,0,0,0,89.271,23.872Z" transform="translate(-32.497 -15.165)" fill="#191847" fill-rule="evenodd"/></g><g transform="translate(0 134.981)"><path d="M138.653,0l37.51,99.254,26.291,73.155h14.992L181.305,0Z" transform="translate(-55.626)" fill="#1f28cf" fill-rule="evenodd"/><path d="M102.407,0c-.408,34.056-.113,79.907-1.063,82.03q-.95,2.123-59.1,48.375l7.727,13.139q69.035-44.519,72.565-50.45C126.067,87.162,143.8,32.581,153.025,0Z" transform="translate(-28.651)" fill="#2b44ff" fill-rule="evenodd"/><g transform="matrix(0.643, 0.766, -0.766, 0.643, 12.55, 128.716)"><path d="M0,16.383.78,0H17.163Q28.815,8.191,47.588,13.262v3.121H17.943L7.8,14.822v1.56Z" fill="#191847" fill-rule="evenodd"/></g><g transform="translate(145.437 170.069)"><path d="M0,36.964.78,20.581H17.163q11.652,8.191,30.425,13.262v3.121H17.943L7.8,35.4v1.56Z" transform="translate(0 -20.581)" fill="#191847" fill-rule="evenodd"/></g></g><g transform="translate(51.262 34.589) rotate(20)"><path d="M155.291,66.409l30.8-4.2A67.138,67.138,0,0,1,203.1,55.247c1.456-.042,3.773.487.321,3.364s-6.953,6.06-6.338,7.6,3.824.964,4.356,3.326q.531,2.362-15.628.768l-24.994,9.909Zm-96.76,7.13,17.083.064q-28.1,63.23-29.3,66.213c-1.805,4.474,2.015,11.287,3.648,14.948-5.321,2.381-4.754-6.436-11.465-3.314-6.126,2.85-10.786,8.014-17.864,3.647-.87-.537-1.824-2.559.48-4.138,5.74-3.936,14.012-10.825,15.129-13.092Q38.527,133.228,58.53,73.538Z" transform="translate(-19.674 -15.458)" fill="#997659" fill-rule="evenodd"/><path d="M0,.278,13.4,0C19.28,29.4,38.8,46.59,78.26,36.74l8.662,37.768c-36.981,8.107-71.1-4-81.366-43.957C2.9,20.208.568,9.4,0,.278Z" transform="translate(85.672 3.624) rotate(5)" fill="#afb9c5" fill-rule="evenodd"/><path d="M106.07.012l20.266,4.641c0,34.856,11.1,57.094,16.8,82.721H88.4c-.771,8.856-1.244,17.957-1.491,27.3H45.931Q59.86,40.564,104.733,0h1.327Z" transform="translate(-27.021)" fill="#c5cfd6" fill-rule="evenodd"/><path d="M113.538,52.276q-2.115,32.58,2.489,49.726H104.9A268.045,268.045,0,0,1,113.538,52.276Z" transform="translate(-43.522 -14.627)" fill="rgba(0,0,0,0.1)" fill-rule="evenodd"/></g></g></g><g transform="translate(70 260)"><g transform="matrix(1, 0, 0, 1, -46.28, 53.79)" filter="url(#a)"><circle cx="29" cy="29" r="29" transform="translate(124.28 249.21)" fill="#f35235"/></g><ellipse cx="7" cy="14" rx="7" ry="14" transform="matrix(0.799, -0.602, 0.602, 0.799, 107.984, 314.032)" fill="#f97449"/></g></g></svg>