<svg xmlns="http://www.w3.org/2000/svg" xmlns:xlink="http://www.w3.org/1999/xlink" width="412.294" height="384.345" viewBox="0 0 412.294 384.345"><defs><filter id="a" x="74.294" y="199.345" width="88" height="88" filterUnits="userSpaceOnUse"><feOffset dy="6" input="SourceAlpha"/><feGaussianBlur stdDeviation="5" result="b"/><feFlood flood-color="#f97449" flood-opacity="0.22"/><feComposite operator="in" in2="b"/><feComposite in="SourceGraphic"/></filter></defs><g transform="translate(56.294 -255.655)"><g transform="translate(104.684 315.891)"><g transform="translate(251.316 324.109) rotate(180)"><g transform="translate(65.112 210.172)"><g transform="translate(3.297 0)"><path d="M6.81,31.74C3.012,36.2.441,41.661.871,47.783c1.238,17.638,25.791,13.758,30.567,4.856s4.209-31.484-1.964-33.075c-2.462-.634-7.706.92-13.043,4.137L19.781,0H0Z" fill="#915b3c" fill-rule="evenodd"/></g><path d="M8.587,0C6.1,11.045-.969,18.574.111,23.511a7.488,7.488,0,0,0,5.758,6.14q2.419,9.787,15.606,8.326c13.186-1.461,21.234-6.938,17.759-18.988-3.195,0-7.052,1.155-12.385-.824q-2.538-.942-3.631-5.844h-2.41Q17.3,18.138,13.889,16.6t-1.551-7.49L11.151,0Z" transform="translate(0 27.77)" fill="#191847" fill-rule="evenodd"/></g><g transform="translate(0 0)"><g transform="translate(0 4.945)"><path d="M13.187,102.2h94.784a13.187,13.187,0,0,0,13.187-13.187V13.187A13.187,13.187,0,0,0,107.971,0H13.187A13.187,13.187,0,0,0,0,13.187V89.014A13.187,13.187,0,0,0,13.187,102.2ZM26.375,79.124a3.3,3.3,0,0,1-3.3-3.3V26.375a3.3,3.3,0,0,1,3.3-3.3H94.784a3.3,3.3,0,0,1,3.3,3.3V75.827a3.3,3.3,0,0,1-3.3,3.3Z" transform="translate(0 0)" fill="#c5cfd6" fill-rule="evenodd"/></g><path d="M54.529,0Q30.154,29.765,21.543,44.133C11.715,60.534,3.67,75.128,1.132,80.7-4.922,94,15.068,100.221,19.592,94.021Q29.864,79.943,63.464,5.426Z" transform="translate(148.357 9.066)" fill="#b28b67" fill-rule="evenodd"/><path d="M31.121,0,.878,76.126C-5.59,90,25.646,99.125,30.4,92.667c10.792-14.662,36.443-72.5,39.658-76.87Z" transform="translate(138.466 14.836)" fill="#2f3676" fill-rule="evenodd"/><g transform="matrix(0.777, -0.629, 0.629, 0.777, 85.119, 27.622)"><path d="M1.487,4.4C.658,14.781-.884,50.734.658,67.375c.443,4.782.91,9.405,1.381,13.743,1.4,12.892,25.3,12.484,23.4.236C20.716,50.852,12.395,8.106,11.8,4.413,10.963-.764,2.009-2.131,1.487,4.4Z" transform="translate(0 0)" fill="#915b3c" fill-rule="evenodd"/></g><g transform="matrix(0.866, -0.5, 0.5, 0.866, 83.205, 24.256)"><path d="M1.383,12.032A17.7,17.7,0,0,1,0,6.507,41.356,41.356,0,0,1,.743,0H47.23q1.812,5.991-2.092,6.468t-6.486.863L17.045,16.963a.824.824,0,0,1-1.088-.417l-.009-.021-1.389-3.369a14.822,14.822,0,0,0-5.874-1.686,13.3,13.3,0,0,0-5.071,1.483h0a1.648,1.648,0,0,1-2.185-.812Q1.4,12.087,1.383,12.032Z" transform="translate(0 0)" fill="#e4e4e4" fill-rule="evenodd"/></g><g transform="translate(194.512)"><path d="M1.383,12.032A17.7,17.7,0,0,1,0,6.507,41.356,41.356,0,0,1,.743,0H47.23q1.812,5.991-2.092,6.468t-6.486.863L17.045,16.963a.824.824,0,0,1-1.088-.417l-.009-.021-1.389-3.369a14.822,14.822,0,0,0-5.874-1.686,13.3,13.3,0,0,0-5.071,1.483h0a1.648,1.648,0,0,1-2.185-.812Q1.4,12.087,1.383,12.032Z" transform="translate(0 0)" fill="#e4e4e4" fill-rule="evenodd"/></g><path d="M78.876,64.67q-37.7,6.142-50.508,8.4C4.034,77.36-3.062,90.455,1.133,119.024H45.967q8.9-2.57,74.371-31.789c7.853-3.9,6.39-15.393,4.955-19.18Q125.206,67.824,85.577,0L48.9,23.365,78.945,61.916Q80.134,64.314,78.876,64.67Z" transform="translate(49.586 22.49)" fill="#5c63ab" fill-rule="evenodd"/></g><g transform="translate(2.607 78.995)"><path d="M129.086,73.309,155.376,54a70.774,70.774,0,0,0,17.873-7.182c1.13-1.029,2.5-3.115-2.192-2.754s-9.632.529-10.279-1.07,2.19-3.51.883-5.667q-1.308-2.157-12.352,10.817l-26.034,10.8ZM28.143,72.643l17.224-.068q-15.952-51.5-17.224-54.648C26.235,13.2,30.271,6,32,2.134c-5.621-2.515-5.022,6.8-12.113,3.5C13.412,2.624,8.488-2.832,1.011,1.782c-.919.567-1.927,2.7.507,4.372C7.582,10.312,16.321,17.59,17.5,19.986Q19.917,24.885,28.143,72.643Z" transform="translate(0 0)" fill="#915b3c" fill-rule="evenodd"/><path d="M0,92.031,6.993,93.87C35.327,73.418,49.971,30.648,84.287,10.314L77.358,0C20.734,2.035,2.185,54.145,0,92.031Z" transform="translate(69.068 53.234) rotate(-5)" fill="#e87613" fill-rule="evenodd"/><path d="M0,0H63.061c2.882,0,2.339,4.161,1.922,6.261C60.176,30.492,41.409,56.613,41.409,91.107L23.22,93.959C8.174,69.762,2.971,39.97,0,0Z" transform="translate(46.021 55.351)" fill="#dde3e9" fill-rule="evenodd"/><path d="M29.464,104.791a10.4,10.4,0,0,0-6.276,5.313c-6.648,12-4.247,18.6,2.858,20.772s13.441-2.3,24.761-2.3a11.4,11.4,0,0,0,1.692-.116l5.694-.325Q82.7,45.08,71.71,17.308H22.076A169.279,169.279,0,0,0,13.634,0H.11Q-1.8,61.733,29.464,104.791Z" transform="translate(17.064 20.734)" fill="#ff9b21" fill-rule="evenodd"/><path d="M10.808,28.437Q13.15,8.846,18.419,0H0Q5.146,12,10.808,28.437Z" transform="translate(39.141 38.042)" fill="rgba(0,0,0,0.1)" fill-rule="evenodd"/></g></g></g><g transform="translate(-2.851 240.126)"><g transform="translate(-53.443 15.182)"><g transform="translate(0 17.729) rotate(-7)"><g transform="translate(108.444 33.503)"><path d="M7.284,30.408C3.222,25.64.472,19.8.932,13.247,2.256-5.621,28.52-1.47,33.629,8.053s4.5,33.678-2.1,35.38c-2.633.679-8.243-.984-13.952-4.425L21.16,64.361H0Z" transform="translate(0 0)" fill="#915b3c" fill-rule="evenodd"/></g><path d="M130.013,30.58c-2.789-.457-10.3-.772-11.682-.772-.885,0-1.844.2-2.368-.61-.429-.665-.272-1.791-.4-2.563-.149-.9-.36-1.782-.574-2.666a27.1,27.1,0,0,0-2.814-7.149,21.974,21.974,0,0,0-10.416-9.43A33.447,33.447,0,0,0,85.944,5.216c-5.676.46-10.813,2.334-16.172,4.1a33.892,33.892,0,0,1-15.8,1.521C48.6,10.007,44.53,7.09,39.991,4.322,35.344,1.488,30.034-.365,24.541.061A29.754,29.754,0,0,0,10.448,5.4C6.481,8.05,3.208,11.234,1.36,15.715c-1.988,4.82-1.986,10.111,1.283,14.37C7.381,36.259,16.178,37.856,23.5,37.7a39.844,39.844,0,0,0,12.388-2.27c5.33-1.875,9.936-5.052,14.923-7.631A38.827,38.827,0,0,1,58.1,24.878c2.46-.695,4.884-1.014,7.111.473a33.584,33.584,0,0,0,7.164,4.1A23.1,23.1,0,0,0,80.458,30.9c5.361-.041,10.646-1.712,15.853-2.831,4.246-.912,8.789-1.821,13.118-.945,1.806.366,4.445,1.122,5.1,3-10.981,1.99-15.293,15.57-12.2,25.539,1.671,5.381,11.714,11.67,15.619,8.842,2.474-1.792.972-4.145,0-5.7-1.861-2.974-2.5-6.795.946-8.865,2.971-1.786,6.095,2.455,6.154,2.45.817-.064,7.872-4.055,12.733-9.877,4.8.284,5.523-2.878,4.378-5.464S133.866,31.213,130.013,30.58Z" fill="#191847" fill-rule="evenodd"/></g><g transform="translate(87.96 173.731)"><path d="M133.491,0l32.3,111.288,15.19,83.558h15.247L181,0Z" transform="translate(-94.698 0)" fill="#784931" fill-rule="evenodd"/><path d="M112.3,0c2.254,57.814,1.365,89.347.861,94.6s-3.368,40.432-22.879,102.01h15.858c25.839-59.074,34.86-94.253,37.823-102.01s11.716-39.29,24.5-94.6Z" transform="translate(-88.017)" fill="#915b3c" fill-rule="evenodd"/><path d="M132.671,0q12.6,57.442,43.588,183.384h22.3C200.206,97.206,193.2,40.486,181.066,0Z" transform="translate(-94.571 0)" fill="#69a1ac" fill-rule="evenodd"/><path d="M112.306,0c2.207,57.814-3.513,114.771-21.23,184.285h23.792C140.756,126.093,159.31,69.416,171.99,0Z" transform="translate(-88.14)" fill="#c5cfd6" fill-rule="evenodd"/><g transform="translate(0 192.201)"><path d="M0,35.685.875,21.578q7.684,2.247,19.249-1.763Q32.56,28.624,51.433,31.844a1.763,1.763,0,0,1,1.442,2.035,1.787,1.787,0,0,1-.042.184l-1.21,4.266H1.75Z" transform="translate(0 -19.815)" fill="#191847" fill-rule="evenodd"/></g><g transform="translate(82.876 192.201)"><path d="M0,35.685.875,21.578q7.684,2.247,19.249-1.763Q32.56,28.624,51.433,31.844a1.763,1.763,0,0,1,1.442,2.035,1.787,1.787,0,0,1-.042.184l-1.21,4.266H1.75Z" transform="translate(0 -19.815)" fill="#191847" fill-rule="evenodd"/></g></g><g transform="translate(48.92 94.58) rotate(-10)"><g transform="translate(-8.193 -193.247) rotate(10)"><g transform="matrix(1, 0, 0, 1, -7.29, 94.65)" filter="url(#a)"><circle cx="29" cy="29" r="29" transform="translate(89.29 208.35)" fill="#f35235"/></g><ellipse cx="7" cy="14" rx="7" ry="14" transform="matrix(0.799, -0.602, 0.602, 0.799, 111.984, 313.032)" fill="#f97449"/></g><path d="M138.084,0l28.123,20.651a75.7,75.7,0,0,1,19.119,7.683c1.209,1.1,2.67,3.332-2.344,2.946s-10.3-.566-11,1.145,2.343,3.755.944,6.062q-1.4,2.307-13.213-11.571l-27.85-11.548ZM30.1.713,48.529.785Q31.464,55.871,30.1,59.242C28.064,64.3,32.381,72,34.228,76.136c-6.013,2.691-5.372-7.274-12.957-3.745-6.923,3.221,4.642,18.541-3.357,13.6-.983-.606-7.445-13.983-6.15-17.769.965-5.475,5.7-8.624,6.959-11.186Q21.306,51.8,30.1.713Z" transform="translate(0 84.396)" fill="#915b3c" fill-rule="evenodd"/><path d="M0,1.967,7.481,0C37.79,21.877,53.455,67.629,90.163,89.381L82.75,100.413C22.181,98.236,2.338,42.494,0,1.967Z" transform="translate(82.634 5.839) rotate(5)" fill="#1f28cf" fill-rule="evenodd"/><path d="M0,100.509H67.457c3.082,0,2.5-4.451,2.056-6.7C64.37,67.891,44.3,39.949,44.3,3.051L24.838,0C8.743,25.884,3.178,57.752,0,100.509Z" transform="translate(49.229 3.097)" fill="#dde3e9" fill-rule="evenodd"/><path d="M31.518,28.54A11.128,11.128,0,0,1,24.8,22.856C17.692,10.024,20.26,2.959,27.861.636S42.239,3.1,54.348,3.1a12.18,12.18,0,0,1,1.809.124l6.092.348q26.214,88.845,14.46,118.552H23.615a181.091,181.091,0,0,1-9.031,18.515H.118Q-1.925,74.6,31.518,28.54Z" transform="translate(18.254 0)" fill="#2b44ff" fill-rule="evenodd"/><path d="M11.562,0q2.5,20.956,8.142,30.419H0Q5.5,17.585,11.562,0Z" transform="translate(41.869 91.702)" fill="rgba(0,0,0,0.1)" fill-rule="evenodd"/></g></g></g></g></svg>