<svg xmlns="http://www.w3.org/2000/svg" width="203.97" height="385.594" viewBox="0 0 203.97 385.594"><g transform="translate(-59.616 -342.463)"><g transform="translate(71.679 338.426)"><g transform="translate(0 0)"><g transform="translate(44.853 161.412)"><g transform="translate(0)"><path d="M195.944,0,160.965,120.533l-16.452,90.5H128L144.483,0Z" transform="translate(-90.904 0)" fill="#997659" fill-rule="evenodd"/><path d="M147.386,0c-2.441,62.616-1.478,96.769-.932,102.458s3.648,43.79,24.78,110.483H154.058C126.072,148.96,116.3,110.859,113.093,102.458S100.4,59.9,86.564,0Z" transform="translate(-26.627)" fill="#b28b67" fill-rule="evenodd"/><path d="M198.833,0q-13.647,62.214-47.209,198.618H127.472C125.688,105.281,133.277,43.849,146.418,0Z" transform="translate(-93.043 0)" fill="#69a1ac" fill-rule="evenodd"/><path d="M151.973,0c-2.39,62.616,3.8,124.305,22.993,199.593H149.2C121.16,136.567,101.065,75.182,87.33,0Z" transform="translate(-31.092)" fill="#89c5cc" fill-rule="evenodd"/><g transform="translate(89.76 208.167)"><path d="M57.295,36.188,56.347,20.91Q48.024,23.344,35.5,19,22.03,28.54,1.589,32.029h0a1.91,1.91,0,0,0-1.516,2.4l1.31,4.621H55.4Z" transform="translate(0 -19)" fill="#191847" fill-rule="evenodd"/></g><g transform="translate(0 208.167)"><path d="M57.295,36.188,56.347,20.91Q48.024,23.344,35.5,19,22.03,28.54,1.589,32.029h0a1.91,1.91,0,0,0-1.516,2.4l1.31,4.621H55.4Z" transform="translate(0 -19)" fill="#191847" fill-rule="evenodd"/></g></g></g><g transform="matrix(-0.998, 0.07, -0.07, -0.998, 132.057, 82.182)"><g transform="translate(0.116 0)"><path d="M8.632,40.233C3.818,45.884.56,52.809,1.1,60.569,2.673,82.927,33.8,78.008,39.85,66.724s5.335-39.908-2.49-41.925c-3.12-.8-9.768,1.166-16.533,5.244L25.074,0H0Z" transform="translate(0 0)" fill="#57331f" fill-rule="evenodd"/></g><path d="M22.2,34.3q1.44-20.055,7.617-20.055c6.177,0,11.418,3.922,14.129,3.922,1.977,0,1.535-2.473.225-4.306-1.081-1.513-6.343-2.97-6.343-5.315s4.158-.531,4.158-1.922c0-2.3.731-6.626-3.262-6.626C34.68,0,23.1,1.473,21.11,7.469q-1.922,5.805-2.485,24.06A6.274,6.274,0,0,1,11.608,25.3,6.25,6.25,0,0,1,13.5,20.821c-1.45-2.047-3.076-4.186-4.939-6.393-7,4.2-12.19,16.488-5.349,28.295C5.1,48.506,9.381,51.6,14.437,53.03a18.186,18.186,0,0,0,11.936.879c7.035-.6,13.317-2.749,15.1-4.023,0-6.661-1.291-8.637-12.314-8.462C26.448,39.994,24.366,37.531,22.2,34.3Z" transform="translate(0 23.798)" fill="#191847" fill-rule="evenodd"/></g><g transform="translate(-7 61.255)"><g transform="translate(-5.063 21.789)"><rect width="12.104" height="37.243" rx="3" transform="translate(0 7.617) rotate(-39)" fill="#2d1212"/><rect width="10.242" height="36.311" rx="3" transform="translate(1.31 6.824) rotate(-39)" fill="#fff"/></g><path d="M201.694,60.512l-15.1-8.3q-3.179-12.1-7.6-12.172c-2.265-1.053,1.678,9.136-2.613,8.253S161.608,39.62,159.8,41.2c-2.671,2.34-.289,9.527,2.516,13.1,5.244,6.681,9.585,8.966,20.316,11.958q8.415,2.347,18.2,9.407Z" transform="translate(-158.987 -2.321)" fill="#57331f" fill-rule="evenodd"/><path d="M151.961,62.175q-19.18,4.783-64.325-11.281Q76.438,74.06,77.283,83.925C103.1,97.412,130.391,103.3,148.623,103.7c-.58,10.817-4.423,21.232,0,30.638,9.093,19.336,62.341,1.429,80.244,4.953,11.212-36.411-10.466-51.208-10.484-74.506C218.364,39.272,197.878,0,194.864,0c0,0-2.659-1.186-2.845-2.96-2.614-2.521-23.322.43-24.184,1.027A1.735,1.735,0,0,0,166.994,0C165.478,19.485,158.226,40.96,151.961,62.175Z" transform="translate(-54.872 0)" fill="#2f3676" fill-rule="evenodd"/></g></g></g></g></svg>