<svg xmlns="http://www.w3.org/2000/svg" width="199.16" height="389.632" viewBox="0 0 199.16 389.632"><g transform="translate(-82.718 -338.426)"><g transform="translate(71.679 338.426)"><g transform="translate(0 0)"><g transform="translate(44.853 161.412)"><g transform="translate(0)"><path d="M195.944,0,160.965,120.533l-16.452,90.5H128L144.483,0Z" transform="translate(-90.904 0)" fill="#997659" fill-rule="evenodd"/><path d="M147.386,0c-2.441,62.616-1.478,96.769-.932,102.458s3.648,43.79,24.78,110.483H154.058C126.072,148.96,116.3,110.859,113.093,102.458S100.4,59.9,86.564,0Z" transform="translate(-26.627)" fill="#b28b67" fill-rule="evenodd"/><path d="M198.833,0q-13.647,62.214-47.209,198.618H127.472C125.688,105.281,133.277,43.849,146.418,0Z" transform="translate(-93.043 0)" fill="#69a1ac" fill-rule="evenodd"/><path d="M151.973,0c-2.39,62.616,3.8,124.305,22.993,199.593H149.2C121.16,136.567,101.065,75.182,87.33,0Z" transform="translate(-31.092)" fill="#89c5cc" fill-rule="evenodd"/><g transform="translate(89.76 208.167)"><path d="M57.295,36.188,56.347,20.91Q48.024,23.344,35.5,19,22.03,28.54,1.589,32.029h0a1.91,1.91,0,0,0-1.516,2.4l1.31,4.621H55.4Z" transform="translate(0 -19)" fill="#191847" fill-rule="evenodd"/></g><g transform="translate(0 208.167)"><path d="M57.295,36.188,56.347,20.91Q48.024,23.344,35.5,19,22.03,28.54,1.589,32.029h0a1.91,1.91,0,0,0-1.516,2.4l1.31,4.621H55.4Z" transform="translate(0 -19)" fill="#191847" fill-rule="evenodd"/></g></g></g><g transform="translate(112.983 60.878) rotate(141)"><g transform="translate(0.116 0)"><path d="M8.632,40.233C3.818,45.884.56,52.809,1.1,60.569,2.673,82.927,33.8,78.008,39.85,66.724s5.335-39.908-2.49-41.925c-3.12-.8-9.768,1.166-16.533,5.244L25.074,0H0Z" transform="translate(0 0)" fill="#57331f" fill-rule="evenodd"/></g><path d="M22.2,34.3q1.44-20.055,7.617-20.055c6.177,0,11.418,3.922,14.129,3.922,1.977,0,1.535-2.473.225-4.306-1.081-1.513-6.343-2.97-6.343-5.315s4.158-.531,4.158-1.922c0-2.3.731-6.626-3.262-6.626C34.68,0,23.1,1.473,21.11,7.469q-1.922,5.805-2.485,24.06A6.274,6.274,0,0,1,11.608,25.3,6.25,6.25,0,0,1,13.5,20.821c-1.45-2.047-3.076-4.186-4.939-6.393-7,4.2-12.19,16.488-5.349,28.295C5.1,48.506,9.381,51.6,14.437,53.03a18.186,18.186,0,0,0,11.936.879c7.035-.6,13.317-2.749,15.1-4.023,0-6.661-1.291-8.637-12.314-8.462C26.448,39.994,24.366,37.531,22.2,34.3Z" transform="translate(0 23.798)" fill="#191847" fill-rule="evenodd"/></g><g transform="translate(210.199 223.937) rotate(166)"><path d="M128.082,73.563l7.01-19.934c8.365-3.607,16.56-27.028,16.56-27.028s.157-4.987-5.5-3.742-6.615,9.885-7.772,9.408,2.424-3.993-.195-4.621c-1.318-1.642-6.931,4.707-11.349,12.918s-6.323,19.929-6.323,19.929Zm-101.225,41.8,22.264.008Q23.339,31.32,21.754,27.353c-2.377-5.95,2.564-14.974,4.673-19.827-6.947-3.189-6.16,8.52-14.925,4.337-8-3.817,0-16.112-9.2-10.353C1.168,2.219-1.03,7.559.555,14.652S7.169,26.868,8.638,29.885Q11.643,36.056,26.856,115.364Z" transform="translate(0 0)" fill="#57331f" fill-rule="evenodd"/><path d="M0,114.929l8.829,2.359c18.268-48.648,93.6-76.048,99.6-94.309,2.2-6.7-2.431-10.608.284-12.461L97.782.918c-2.163,2.122-6.02-2.476-15.05-.334S4.924,55.8,0,114.929Z" transform="translate(28.345 76.797) rotate(-16)" fill="#191847" fill-rule="evenodd"/><path d="M75.478,145.216c-1.315-66.34,36.926-83.1,28.281-109.751-7.14-22-74.69-45.9-86.272-24.41A110.375,110.375,0,0,0,18.137,0L-2.189,3.86C-1.127,9.6-1.169,59.115.817,71.947c8.9,57.494.764,54.777,38.752,80.773l.415,5.611a4.2,4.2,0,0,0,4.454,3.88l27.993-1.845a4.12,4.12,0,0,0,3.839-4.427Z" transform="translate(12.097 34.626)" fill="#2f3676" fill-rule="evenodd"/></g></g></g></g></svg>